<svg xmlns="http://www.w3.org/2000/svg" version="1.1" xmlns:xlink="http://www.w3.org/1999/xlink" xmlns:svgjs="http://svgjs.dev/svgjs" width="1000" height="1000" viewBox="0 0 1000 1000"><rect width="1000" height="1000" fill="#ffffff"></rect><g transform="matrix(0.7,0,0,0.7,149.5757751017053,418.21980945218)"><svg viewBox="0 0 396 93" data-background-color="#ffffff" preserveAspectRatio="xMidYMid meet" height="234" width="1000" xmlns="http://www.w3.org/2000/svg" xmlns:xlink="http://www.w3.org/1999/xlink"><g id="tight-bounds" transform="matrix(1,0,0,1,0.23999038342901713,-0.068023681640625)"><svg viewBox="0 0 395.52 93.13604248359073" height="93.13604248359073" width="395.52"><g><svg viewBox="0 0 494.5665814529556 116.45927928086243" height="93.13604248359073" width="395.52"><g><svg viewBox="0 0 494.5665814529556 116.45927928086243" height="116.45927928086243" width="494.5665814529556"><g id="textblocktransform"><svg viewBox="0 0 494.5665814529556 116.45927928086243" height="116.45927928086243" width="494.5665814529556" id="textblock"><g><svg viewBox="0 0 494.5665814529556 82.3562" height="82.3562" width="494.5665814529556"><g><svg><g></g><g></g></svg></g><g><svg><g></g><g><svg></svg></g></svg></g><g id="text-0"><svg viewBox="0 0 494.5665814529556 82.3562" height="82.3562" width="494.5665814529556"><g><svg xmlns="http://www.w3.org/2000/svg" xmlns:xlink="http://www.w3.org/1999/xlink" version="1.1" x="0" y="0" viewBox="7.797000408172607 4.980999946594238 87.16500091552734 90.17999267578125" enable-background="new 0 0 100 100" xml:space="preserve" height="82.3562" width="79.60278145295563" class="icon-s-0" data-fill-palette-color="accent" id="s-0"><path fill="#000000" d="M72.212 88.72H57.953h-0.929H14.239V11.423h57.973v35.389l6.44-11.542V11.568c0-3.646-2.548-6.587-6.194-6.587H13.97c-3.646 0-6.173 2.94-6.173 6.587v77.408c0 3.647 2.527 6.185 6.173 6.185h58.488c3.646 0 6.194-2.537 6.194-6.185V67.771l-6.44 11.542V88.72z" data-fill-palette-color="accent"></path><rect x="19.76" y="21.545" fill="#000000" width="35.888" height="4.601" data-fill-palette-color="accent"></rect><rect x="19.76" y="42.71" fill="#000000" width="35.888" height="4.601" data-fill-palette-color="accent"></rect><rect x="19.76" y="32.587" fill="#000000" width="46.93" height="4.602" data-fill-palette-color="accent"></rect><rect x="19.76" y="53.752" fill="#000000" width="46.93" height="4.602" data-fill-palette-color="accent"></rect><rect x="19.76" y="63.874" fill="#000000" width="35.888" height="4.603" data-fill-palette-color="accent"></rect><polygon fill="#000000" points="88.496,28.171 86.751,31.209 85.997,32.521 92.466,36.234 93.217,34.924 94.962,31.886 " data-fill-palette-color="accent"></polygon><polygon fill="#000000" points="61.169,74.541 61.169,82.277 67.816,78.255 90.711,38.638 84.243,34.924 " data-fill-palette-color="accent"></polygon><polygon points="28.578,76.02 26.547,73.99 24.168,76.367 21.789,73.99 19.758,76.02 22.138,78.397 19.758,80.78 21.789,82.812   24.168,80.431 26.547,82.812 28.578,80.78 26.199,78.397 " fill="#000000" data-fill-palette-color="accent"></polygon><g fill="#7fdbff" data-fill-palette-color="accent"><rect x="30.669" y="80.415" width="25.009" height="1.862" fill="#000000" data-fill-palette-color="accent"></rect></g></svg></g><g transform="matrix(1,0,0,1,99.04658145295562,4.367041305540326)"><svg width="395.52" viewBox="2.5 -38.45000076293945 273.5199890136719 50.900001525878906" height="73.62211738891935" data-palette-color="url(#fc4da0e9-75ca-483f-babc-0db56d0a55ba)"></svg></g></svg></g></svg></g><g transform="matrix(1,0,0,1,94.46221705751452,99.73661498470653)"><svg viewBox="0 0 305.64214733792653 16.722664296155912" height="16.722664296155912" width="305.64214733792653"><g transform="matrix(1,0,0,1,0,0)"><svg width="305.64214733792653" viewBox="3.8499999046325684 -38.45000076293945 926.550048828125 50.70000076293945" height="16.722664296155912" data-palette-color="url(#2a24f3f8-4315-49eb-8cf9-8c6bf76dd4b5)"></svg></g></svg></g></svg></g></svg></g></svg></g><defs></defs><mask id="390fbfda-93d2-49b4-8c29-55f7b5381359"><g id="SvgjsG1734"><svg viewBox="0 0 395.52 93.13604248359073" height="93.13604248359073" width="395.52"><g><svg viewBox="0 0 494.5665814529556 116.45927928086243" height="93.13604248359073" width="395.52"><g><svg viewBox="0 0 494.5665814529556 116.45927928086243" height="116.45927928086243" width="494.5665814529556"><g id="SvgjsG1733"><svg viewBox="0 0 494.5665814529556 116.45927928086243" height="116.45927928086243" width="494.5665814529556" id="SvgjsSvg1732"><g><svg viewBox="0 0 494.5665814529556 82.3562" height="82.3562" width="494.5665814529556"><g><svg><g></g><g></g></svg></g><g><svg><g></g><g><svg></svg></g></svg></g><g id="SvgjsG1731"><svg viewBox="0 0 494.5665814529556 82.3562" height="82.3562" width="494.5665814529556"><g><svg xmlns="http://www.w3.org/2000/svg" xmlns:xlink="http://www.w3.org/1999/xlink" version="1.1" x="0" y="0" viewBox="7.797000408172607 4.980999946594238 87.16500091552734 90.17999267578125" enable-background="new 0 0 100 100" xml:space="preserve" height="82.3562" width="79.60278145295563" class="icon-s-0" data-fill-palette-color="accent" id="SvgjsSvg1730"></svg></g><g transform="matrix(1,0,0,1,99.04658145295562,4.367041305540326)"><svg width="395.52" viewBox="2.5 -38.45000076293945 273.5199890136719 50.900001525878906" height="73.62211738891935" data-palette-color="url(#fc4da0e9-75ca-483f-babc-0db56d0a55ba)"><path d="M11.15 0L2.5 0 2.5-26.9 9.2-26.9 11.15-23Q12.45-24.75 14.15-26.03 15.85-27.3 18.2-27.3L18.2-27.3Q18.65-27.3 19.23-27.25 19.8-27.2 20.3-27.05L20.3-27.05 20.3-18.2Q19.5-18.3 18.65-18.35 17.8-18.4 17.05-18.4L17.05-18.4Q15.75-18.4 14.68-18.13 13.6-17.85 12.73-17.32 11.85-16.8 11.15-15.95L11.15-15.95 11.15 0ZM35.55 0.25L35.55 0.25Q31.05 0.25 28.3-0.93 25.55-2.1 24.32-5.08 23.1-8.05 23.1-13.4L23.1-13.4Q23.1-18.9 24.22-21.93 25.35-24.95 28-26.15 30.65-27.35 35.2-27.35L35.2-27.35Q39.35-27.35 41.8-26.55 44.25-25.75 45.32-23.7 46.4-21.65 46.4-17.9L46.4-17.9Q46.4-15.1 45.3-13.45 44.2-11.8 42.17-11.13 40.15-10.45 37.4-10.45L37.4-10.45 31.65-10.45Q31.8-8.85 32.27-7.9 32.75-6.95 34.05-6.55 35.35-6.15 37.9-6.15L37.9-6.15 45.45-6.15 45.45-1.1Q43.6-0.65 41.22-0.2 38.85 0.25 35.55 0.25ZM31.55-15.55L31.55-15.55 36.45-15.55Q37.7-15.55 38.25-16.05 38.8-16.55 38.8-17.85L38.8-17.85Q38.8-19.05 38.45-19.78 38.1-20.5 37.3-20.83 36.5-21.15 35.2-21.15L35.2-21.15Q33.9-21.15 33.1-20.68 32.3-20.2 31.92-18.98 31.55-17.75 31.55-15.55ZM56.55 0.3L56.55 0.3Q53.45 0.3 51.55-1.53 49.65-3.35 49.65-6.5L49.65-6.5 49.65-9.1Q49.65-12.15 51.82-14.15 54-16.15 58.65-16.15L58.65-16.15 64.75-16.15 64.75-17.45Q64.75-18.55 64.34-19.25 63.95-19.95 62.8-20.25 61.65-20.55 59.25-20.55L59.25-20.55 51.35-20.55 51.35-25.5Q53.35-26.25 56.02-26.73 58.7-27.2 62.5-27.25L62.5-27.25Q65.84-27.25 68.3-26.45 70.75-25.65 72.07-23.68 73.4-21.7 73.4-18.05L73.4-18.05 73.4 0 66.55 0 65.2-2.75Q64.75-2.35 63.97-1.83 63.2-1.3 62.07-0.8 60.95-0.3 59.55 0 58.15 0.3 56.55 0.3ZM61-5.65L61-5.65Q61.35-5.6 61.82-5.7 62.3-5.8 62.75-5.93 63.2-6.05 63.62-6.18 64.05-6.3 64.32-6.43 64.59-6.55 64.75-6.6L64.75-6.6 64.75-12.1 61.55-11.8Q59.9-11.6 59.07-10.93 58.25-10.25 58.25-9L58.25-9 58.25-7.95Q58.25-7.1 58.6-6.58 58.95-6.05 59.57-5.85 60.2-5.65 61-5.65ZM88.94 0.3L88.94 0.3Q86.44 0.3 84.34-0.38 82.24-1.05 80.72-2.58 79.19-4.1 78.34-6.73 77.49-9.35 77.49-13.3L77.49-13.3Q77.49-17.4 78.27-20.13 79.04-22.85 80.52-24.43 81.99-26 84.19-26.68 86.39-27.35 89.24-27.35L89.24-27.35Q91.79-27.35 93.99-27.03 96.19-26.7 98.74-25.95L98.74-25.95 98.74-21 91.99-21Q89.74-21 88.47-20.38 87.19-19.75 86.67-18.1 86.14-16.45 86.14-13.4L86.14-13.4Q86.14-10.35 86.67-8.78 87.19-7.2 88.47-6.7 89.74-6.2 92.09-6.2L92.09-6.2 99.14-6.2 99.14-1.3Q97.89-0.85 96.17-0.48 94.44-0.1 92.57 0.1 90.69 0.3 88.94 0.3ZM118.69 0L113.44 0Q110.19 0 108.17-0.93 106.14-1.85 105.29-4 104.44-6.15 104.54-9.85L104.54-9.85 104.79-20.05 100.64-20.05 100.64-25.55 105.14-26.9 106.24-34.45 113.09-34.45 113.09-26.9 118.94-26.9 118.94-20.05 113.09-20.05 113.09-9.9Q113.09-9.05 113.24-8.47 113.39-7.9 113.69-7.53 113.99-7.15 114.39-6.98 114.79-6.8 115.29-6.75L115.29-6.75 118.69-6.4 118.69 0ZM136.59-11.05L121.09-11.05 121.09-17.95 136.59-17.95 136.59-11.05ZM150.79 0L142.14 0 142.14-20.05 138.49-20.05 138.49-25.55 142.14-26.9 142.14-28.25Q142.14-31.85 143.14-34.1 144.14-36.35 146.19-37.4 148.24-38.45 151.54-38.45L151.54-38.45Q153.29-38.45 154.81-38.18 156.34-37.9 157.24-37.65L157.24-37.65 157.24-31.45 153.29-31.45Q152.39-31.45 151.84-31.18 151.29-30.9 151.04-30.33 150.79-29.75 150.79-28.75L150.79-28.75 150.79-26.9 157.14-26.9 157.14-20.05 150.79-20.05 150.79 0ZM167.88-30.55L161.18-30.55Q160.08-30.55 160.08-31.65L160.08-31.65 160.08-36.9Q160.08-38.05 161.18-38.05L161.18-38.05 167.88-38.05Q168.43-38.05 168.68-37.73 168.93-37.4 168.93-36.9L168.93-36.9 168.93-31.65Q168.93-30.55 167.88-30.55L167.88-30.55ZM168.83 0L160.18 0 160.18-26.9 168.83-26.9 168.83 0ZM189.18 12.45L180.93 12.45Q178.43 12.45 176.43 11.7 174.43 10.95 173.28 9.53 172.13 8.1 172.13 6.05L172.13 6.05 172.13 5.4Q172.13 3.3 173.36 1.78 174.58 0.25 176.53-0.55 178.48-1.35 180.68-1.35L180.68-1.35 183.38 1.2Q182.38 1.2 181.71 1.5 181.03 1.8 180.66 2.35 180.28 2.9 180.28 3.65L180.28 3.65 180.28 4.05Q180.28 5.15 181.06 5.8 181.83 6.45 183.38 6.45L183.38 6.45 188.13 6.45Q189.58 6.45 190.48 5.88 191.38 5.3 191.38 4.15L191.38 4.15 191.38 3.45Q191.38 2.75 191.01 2.25 190.63 1.75 189.96 1.48 189.28 1.2 188.23 1.2L188.23 1.2 182.98 1.2Q178.03 1.2 175.68-0.6 173.33-2.4 173.33-5L173.33-5Q173.33-7.05 174.48-8.47 175.63-9.9 177.73-10.4L177.73-10.4Q176.23-11.3 175.33-12.5 174.43-13.7 174.03-15.13 173.63-16.55 173.63-18.05L173.63-18.05Q173.63-21 174.83-22.98 176.03-24.95 178.56-25.93 181.08-26.9 185.08-26.9L185.08-26.9 199.73-26.9 199.73-22.2 196.28-21.35Q196.68-20.85 197.01-20.18 197.33-19.5 197.56-18.55 197.78-17.6 197.78-16.2L197.78-16.2Q197.78-13.8 196.78-11.95 195.78-10.1 193.66-9.05 191.53-8 187.98-8L187.98-8 183.03-8Q182.03-8 181.31-7.65 180.58-7.3 180.58-6.5L180.58-6.5Q180.58-5.75 181.23-5.48 181.88-5.2 182.73-5.2L182.73-5.2 189.68-5.2Q192.73-5.2 194.93-4.4 197.13-3.6 198.33-1.78 199.53 0.05 199.53 3.1L199.53 3.1 199.53 3.65Q199.53 7.75 197.03 10.1 194.53 12.45 189.18 12.45L189.18 12.45ZM184.23-14.45L184.23-14.45 187.03-14.45Q188.18-14.45 188.83-14.78 189.48-15.1 189.76-15.8 190.03-16.5 190.03-17.45L190.03-17.45Q190.03-18.55 189.73-19.23 189.43-19.9 188.78-20.2 188.13-20.5 187.08-20.5L187.08-20.5 184.33-20.5Q182.78-20.5 182.08-19.83 181.38-19.15 181.38-17.5L181.38-17.5Q181.38-15.9 182.06-15.18 182.73-14.45 184.23-14.45ZM210.53 0.3L210.53 0.3Q206.98 0.3 204.95-1.88 202.93-4.05 202.93-7.8L202.93-7.8 202.93-26.9 211.58-26.9 211.58-10.5Q211.58-8.6 212.48-7.95 213.38-7.3 214.83-7.3L214.83-7.3Q215.83-7.3 217.15-7.8 218.48-8.3 219.33-9.05L219.33-9.05 219.33-26.9 227.93-26.9 227.93 0 220.78 0 219.33-2.65Q217.58-1.55 215.3-0.63 213.03 0.3 210.53 0.3ZM241.58 0L232.93 0 232.93-26.9 239.63-26.9 241.58-23Q242.88-24.75 244.58-26.03 246.28-27.3 248.63-27.3L248.63-27.3Q249.08-27.3 249.65-27.25 250.23-27.2 250.73-27.05L250.73-27.05 250.73-18.2Q249.93-18.3 249.08-18.35 248.23-18.4 247.48-18.4L247.48-18.4Q246.18-18.4 245.1-18.13 244.03-17.85 243.15-17.32 242.28-16.8 241.58-15.95L241.58-15.95 241.58 0ZM259.17 0.3L259.17 0.3Q256.07 0.3 254.17-1.53 252.27-3.35 252.27-6.5L252.27-6.5 252.27-9.1Q252.27-12.15 254.45-14.15 256.62-16.15 261.27-16.15L261.27-16.15 267.37-16.15 267.37-17.45Q267.37-18.55 266.97-19.25 266.57-19.95 265.42-20.25 264.27-20.55 261.87-20.55L261.87-20.55 253.97-20.55 253.97-25.5Q255.97-26.25 258.65-26.73 261.32-27.2 265.12-27.25L265.12-27.25Q268.47-27.25 270.92-26.45 273.37-25.65 274.7-23.68 276.02-21.7 276.02-18.05L276.02-18.05 276.02 0 269.17 0 267.82-2.75Q267.37-2.35 266.6-1.83 265.82-1.3 264.7-0.8 263.57-0.3 262.17 0 260.77 0.3 259.17 0.3ZM263.62-5.65L263.62-5.65Q263.97-5.6 264.45-5.7 264.92-5.8 265.37-5.93 265.82-6.05 266.25-6.18 266.67-6.3 266.95-6.43 267.22-6.55 267.37-6.6L267.37-6.6 267.37-12.1 264.17-11.8Q262.52-11.6 261.7-10.93 260.87-10.25 260.87-9L260.87-9 260.87-7.95Q260.87-7.1 261.22-6.58 261.57-6.05 262.2-5.85 262.82-5.65 263.62-5.65Z" opacity="1" transform="matrix(1,0,0,1,0,0)" fill="white" class="wordmark-text-0"></path></svg></g></svg></g></svg></g><g transform="matrix(1,0,0,1,94.46221705751452,99.73661498470653)"><svg viewBox="0 0 305.64214733792653 16.722664296155912" height="16.722664296155912" width="305.64214733792653"><g transform="matrix(1,0,0,1,0,0)"><svg width="305.64214733792653" viewBox="3.8499999046325684 -38.45000076293945 926.550048828125 50.70000076293945" height="16.722664296155912" data-palette-color="url(#2a24f3f8-4315-49eb-8cf9-8c6bf76dd4b5)"></svg></g></svg></g></svg></g></svg></g></svg></g><defs></defs></svg></g></mask><linearGradient x1="0" x2="1" y1="0.578" y2="0.595" id="fc4da0e9-75ca-483f-babc-0db56d0a55ba"><stop stop-color="#6ee2f5" offset="0"></stop><stop stop-color="#6454f0" offset="1"></stop></linearGradient><rect width="395.52001953125" height="93.13604736328125" fill="#000000" mask="url(#390fbfda-93d2-49b4-8c29-55f7b5381359)" data-fill-palette-color="primary"></rect><mask id="8b61e1cf-d9c2-4b87-8de0-f97a64a49f91"><g id="SvgjsG1745"><svg viewBox="0 0 395.52 93.13604248359073" height="93.13604248359073" width="395.52"><g><svg viewBox="0 0 494.5665814529556 116.45927928086243" height="93.13604248359073" width="395.52"><g><svg viewBox="0 0 494.5665814529556 116.45927928086243" height="116.45927928086243" width="494.5665814529556"><g id="SvgjsG1744"><svg viewBox="0 0 494.5665814529556 116.45927928086243" height="116.45927928086243" width="494.5665814529556" id="SvgjsSvg1743"><g><svg viewBox="0 0 494.5665814529556 82.3562" height="82.3562" width="494.5665814529556"><g><svg><g></g><g></g></svg></g><g><svg><g></g><g><svg></svg></g></svg></g><g id="SvgjsG1742"><svg viewBox="0 0 494.5665814529556 82.3562" height="82.3562" width="494.5665814529556"><g><svg xmlns="http://www.w3.org/2000/svg" xmlns:xlink="http://www.w3.org/1999/xlink" version="1.1" x="0" y="0" viewBox="7.797000408172607 4.980999946594238 87.16500091552734 90.17999267578125" enable-background="new 0 0 100 100" xml:space="preserve" height="82.3562" width="79.60278145295563" class="icon-s-0" data-fill-palette-color="accent" id="SvgjsSvg1741"></svg></g><g transform="matrix(1,0,0,1,99.04658145295562,4.367041305540326)"><svg width="395.52" viewBox="2.5 -38.45000076293945 273.5199890136719 50.900001525878906" height="73.62211738891935" data-palette-color="url(#fc4da0e9-75ca-483f-babc-0db56d0a55ba)"></svg></g></svg></g></svg></g><g transform="matrix(1,0,0,1,94.46221705751452,99.73661498470653)"><svg viewBox="0 0 305.64214733792653 16.722664296155912" height="16.722664296155912" width="305.64214733792653"><g transform="matrix(1,0,0,1,0,0)"><svg width="305.64214733792653" viewBox="3.8499999046325684 -38.45000076293945 926.550048828125 50.70000076293945" height="16.722664296155912" data-palette-color="url(#2a24f3f8-4315-49eb-8cf9-8c6bf76dd4b5)"><path d="M7.85 0L3.85 0 3.85-36.8 18.5-36.8Q20.1-36.8 21.78-36.38 23.45-35.95 24.9-34.73 26.35-33.5 27.23-31.18 28.1-28.85 28.1-25.05L28.1-25.05Q28.1-21.15 27.18-18.78 26.25-16.4 24.78-15.13 23.3-13.85 21.6-13.4 19.9-12.95 18.3-12.95L18.3-12.95Q17.55-12.95 16.1-13 14.65-13.05 13.03-13.13 11.4-13.2 10-13.3 8.6-13.4 7.85-13.45L7.85-13.45 7.85 0ZM7.85-33.2L7.85-16.5 17.8-16.5Q19.55-16.5 21-17.25 22.45-18 23.28-19.85 24.1-21.7 24.1-25L24.1-25Q24.1-28.25 23.28-30.03 22.45-31.8 21.1-32.5 19.75-33.2 18.15-33.2L18.15-33.2 7.85-33.2ZM44.1 0.3L44.1 0.3Q41.2 0.3 39.02-0.3 36.85-0.9 35.4-2.4 33.95-3.9 33.25-6.58 32.55-9.25 32.55-13.4L32.55-13.4Q32.55-17.6 33.25-20.28 33.95-22.95 35.4-24.43 36.85-25.9 39.02-26.48 41.2-27.05 44.1-27.05L44.1-27.05Q47-27.05 49.17-26.45 51.35-25.85 52.8-24.38 54.25-22.9 54.97-20.23 55.7-17.55 55.7-13.4L55.7-13.4Q55.7-9.2 54.97-6.53 54.25-3.85 52.82-2.38 51.4-0.9 49.2-0.3 47 0.3 44.1 0.3ZM44.1-2.95L44.1-2.95Q45.95-2.95 47.37-3.3 48.8-3.65 49.75-4.7 50.7-5.75 51.2-7.85 51.7-9.95 51.7-13.4L51.7-13.4Q51.7-16.9 51.2-18.95 50.7-21 49.75-22.05 48.8-23.1 47.37-23.45 45.95-23.8 44.1-23.8L44.1-23.8Q42.2-23.8 40.8-23.45 39.4-23.1 38.45-22.05 37.5-21 37-18.95 36.5-16.9 36.5-13.4L36.5-13.4Q36.5-9.95 37-7.85 37.5-5.75 38.45-4.7 39.4-3.65 40.8-3.3 42.2-2.95 44.1-2.95ZM70.9 0L66.59 0 58.5-26.7 62.55-26.7 69.09-3.7 75.84-26.7 79.3-26.7 86.05-3.7 92.4-26.7 96.45-26.7 88.4 0 84.05 0 77.5-21.4 70.9 0ZM110.39 0.3L110.39 0.3Q106.19 0.3 103.77-0.95 101.34-2.2 100.29-5.2 99.24-8.2 99.24-13.4L99.24-13.4Q99.24-18.7 100.32-21.68 101.39-24.65 103.84-25.85 106.29-27.05 110.44-27.05L110.44-27.05Q113.99-27.05 116.22-26.25 118.44-25.45 119.52-23.53 120.59-21.6 120.59-18.2L120.59-18.2Q120.59-15.85 119.67-14.43 118.74-13 117.02-12.38 115.29-11.75 112.94-11.75L112.94-11.75 103.19-11.75Q103.24-8.5 103.89-6.53 104.54-4.55 106.27-3.68 107.99-2.8 111.34-2.8L111.34-2.8 119.94-2.8 119.94-0.4Q117.64-0.1 115.44 0.1 113.24 0.3 110.39 0.3ZM103.14-14.35L103.14-14.35 112.64-14.35Q114.89-14.35 115.97-15.18 117.04-16 117.04-18.15L117.04-18.15Q117.04-20.45 116.37-21.73 115.69-23 114.27-23.53 112.84-24.05 110.44-24.05L110.44-24.05Q107.64-24.05 106.04-23.23 104.44-22.4 103.79-20.3 103.14-18.2 103.14-14.35ZM131.19 0L127.24 0 127.24-26.7 130.24-26.7 131.19-22.05Q132.99-24.2 135.22-25.6 137.44-27 140.34-27L140.34-27Q141.04-27 141.67-26.95 142.29-26.9 142.84-26.75L142.84-26.75 142.84-22.7Q142.19-22.8 141.44-22.88 140.69-22.95 139.94-22.95L139.94-22.95Q138.09-22.95 136.64-22.5 135.19-22.05 133.89-21.15 132.59-20.25 131.19-18.95L131.19-18.95 131.19 0ZM153.24 0L149.29 0 149.29-23.45 145.19-23.45 145.19-26 149.29-26.7 149.29-29.75Q149.29-32.6 149.99-34.52 150.69-36.45 152.34-37.45 153.99-38.45 156.94-38.45L156.94-38.45Q158.69-38.45 159.91-38.27 161.14-38.1 162.09-37.95L162.09-37.95 162.09-35.15 157.64-35.15Q155.84-35.15 154.89-34.58 153.94-34 153.59-32.83 153.24-31.65 153.24-29.95L153.24-29.95 153.24-26.7 161.54-26.7 161.54-23.45 153.24-23.45 153.24 0ZM174.19 0.3L174.19 0.3Q170.34 0.3 168.26-1.7 166.19-3.7 166.19-7.9L166.19-7.9 166.19-26.7 170.14-26.7 170.14-8.9Q170.14-5.55 171.66-4.38 173.19-3.2 175.94-3.2L175.94-3.2Q178.29-3.2 180.24-3.88 182.19-4.55 184.24-5.75L184.24-5.75 184.24-26.7 188.19-26.7 188.19 0 185.09 0 184.24-2.95Q182.19-1.65 179.61-0.68 177.04 0.3 174.19 0.3ZM206.03 0.05L202.63 0.05Q200.33 0.05 198.78-0.78 197.23-1.6 196.43-3.48 195.63-5.35 195.63-8.55L195.63-8.55 195.63-38.15 199.58-38.15 199.58-9.05Q199.58-6.65 200.03-5.43 200.48-4.2 201.33-3.73 202.18-3.25 203.33-3.1L203.33-3.1 206.03-2.8 206.03 0.05ZM211.03 3.9L211.03 3.9Q210.53 3.9 210.16 3.83 209.78 3.75 209.78 3.75L209.78 3.75 209.78 2.5Q210.33 2.5 210.58 2.33 210.83 2.15 210.83 1.65L210.83 1.65 210.83-0.25 210.43-0.25Q210.13-0.25 209.88-0.45 209.63-0.65 209.63-1.05L209.63-1.05 209.63-4.65Q209.63-5.55 210.43-5.55L210.43-5.55 212.58-5.55Q213.08-5.55 213.23-5.3 213.38-5.05 213.38-4.65L213.38-4.65 213.38 1.45Q213.38 2.45 213.01 3 212.63 3.55 212.11 3.73 211.58 3.9 211.03 3.9ZM255.33 0L241.28 0Q239.13 0 237.45-0.68 235.78-1.35 234.83-2.98 233.88-4.6 233.88-7.4L233.88-7.4 233.88-36.8 237.88-36.8 237.88-7.95Q237.88-6.15 238.48-5.23 239.08-4.3 240.08-3.98 241.08-3.65 242.13-3.65L242.13-3.65 255.33-3.65 255.33 0ZM263.82-31.45L261.02-31.45Q260.22-31.45 260.22-32.25L260.22-32.25 260.22-36.15Q260.22-36.95 261.02-36.95L261.02-36.95 263.82-36.95Q264.22-36.95 264.4-36.73 264.57-36.5 264.57-36.15L264.57-36.15 264.57-32.25Q264.57-31.45 263.82-31.45L263.82-31.45ZM264.37 0L260.42 0 260.42-26.7 264.37-26.7 264.37 0ZM285.97 12.25L278.52 12.25Q275.92 12.25 273.95 11.53 271.97 10.8 270.85 9.33 269.72 7.85 269.72 5.65L269.72 5.65 269.72 4.45Q269.72 2.15 271 0.6 272.27-0.95 274.22-1.73 276.17-2.5 278.22-2.5L278.22-2.5 279.22-0.9Q277.72-0.9 276.42-0.43 275.12 0.05 274.3 1.1 273.47 2.15 273.47 3.8L273.47 3.8 273.47 4.9Q273.47 7.3 275.07 8.33 276.67 9.35 279.42 9.35L279.42 9.35 285.62 9.35Q288.62 9.35 290.35 8.2 292.07 7.05 292.07 4.6L292.07 4.6 292.07 3.6Q292.07 2.2 291.52 1.2 290.97 0.2 289.7-0.35 288.42-0.9 286.12-0.9L286.12-0.9 278.07-0.9Q274.97-0.9 273.25-2.23 271.52-3.55 271.52-5.65L271.52-5.65Q271.52-7.65 272.7-8.8 273.87-9.95 276.02-10.4L276.02-10.4Q274.17-11.15 273.12-12.43 272.07-13.7 271.67-15.18 271.27-16.65 271.27-18.15L271.27-18.15Q271.27-21.25 272.52-23.15 273.77-25.05 276.1-25.9 278.42-26.75 281.57-26.75L281.57-26.75 295.82-26.75 295.82-24.5 289.82-24Q290.47-23.55 291.27-22.83 292.07-22.1 292.65-20.78 293.22-19.45 293.22-17.15L293.22-17.15Q293.22-15.1 292.35-13.25 291.47-11.4 289.42-10.23 287.37-9.05 283.77-9.05L283.77-9.05 279.52-9.05Q277.42-9.05 276.2-8.43 274.97-7.8 274.97-6.2L274.97-6.2Q274.97-5 275.87-4.5 276.77-4 277.77-4L277.77-4 286.62-4Q289.72-4 291.75-3.2 293.77-2.4 294.8-0.78 295.82 0.85 295.82 3.35L295.82 3.35 295.82 4.45Q295.82 8.1 293.35 10.18 290.87 12.25 285.97 12.25L285.97 12.25ZM280.37-12.1L280.37-12.1 283.37-12.1Q285.92-12.1 287.25-12.88 288.57-13.65 289.07-14.9 289.57-16.15 289.57-17.6L289.57-17.6Q289.57-19.85 288.85-21.18 288.12-22.5 286.82-23.08 285.52-23.65 283.82-23.65L283.82-23.65 280.97-23.65Q278.12-23.65 276.5-22.38 274.87-21.1 274.87-17.95L274.87-17.95Q274.87-14.85 276.35-13.48 277.82-12.1 280.37-12.1ZM304.72 0L300.77 0 300.77-38.15 304.72-38.15 304.72-23.75Q306.57-25.1 309.14-26.13 311.72-27.15 314.52-27.15L314.52-27.15Q317.32-27.15 319.14-25.95 320.97-24.75 321.84-22.7 322.72-20.65 322.72-18.15L322.72-18.15 322.72 0 318.77 0 318.77-17.75Q318.77-19.45 318.09-20.75 317.42-22.05 316.17-22.8 314.92-23.55 313.17-23.55L313.17-23.55Q311.52-23.55 310.12-23.23 308.72-22.9 307.42-22.33 306.12-21.75 304.72-20.95L304.72-20.95 304.72 0ZM342.67 0L339.02 0Q336.42 0 334.72-0.85 333.02-1.7 332.22-3.6 331.42-5.5 331.47-8.65L331.47-8.65 331.62-23.45 327.37-23.45 327.37-26 331.67-26.7 332.32-34.15 335.37-34.15 335.37-26.7 343.07-26.7 343.07-23.45 335.37-23.45 335.37-8.65Q335.37-6.9 335.74-5.85 336.12-4.8 336.74-4.25 337.37-3.7 338.07-3.48 338.77-3.25 339.42-3.2L339.42-3.2 342.67-2.9 342.67 0ZM358.06 0L353.76 0 345.66-26.7 349.71-26.7 356.26-3.7 363.01-26.7 366.46-26.7 373.21-3.7 379.56-26.7 383.61-26.7 375.56 0 371.21 0 364.66-21.4 358.06 0ZM397.56 0.3L397.56 0.3Q393.36 0.3 390.94-0.95 388.51-2.2 387.46-5.2 386.41-8.2 386.41-13.4L386.41-13.4Q386.41-18.7 387.49-21.68 388.56-24.65 391.01-25.85 393.46-27.05 397.61-27.05L397.61-27.05Q401.16-27.05 403.39-26.25 405.61-25.45 406.69-23.53 407.76-21.6 407.76-18.2L407.76-18.2Q407.76-15.85 406.84-14.43 405.91-13 404.19-12.38 402.46-11.75 400.11-11.75L400.11-11.75 390.36-11.75Q390.41-8.5 391.06-6.53 391.71-4.55 393.44-3.68 395.16-2.8 398.51-2.8L398.51-2.8 407.11-2.8 407.11-0.4Q404.81-0.1 402.61 0.1 400.41 0.3 397.56 0.3ZM390.31-14.35L390.31-14.35 399.81-14.35Q402.06-14.35 403.14-15.18 404.21-16 404.21-18.15L404.21-18.15Q404.21-20.45 403.54-21.73 402.86-23 401.44-23.53 400.01-24.05 397.61-24.05L397.61-24.05Q394.81-24.05 393.21-23.23 391.61-22.4 390.96-20.3 390.31-18.2 390.31-14.35ZM417.81-31.45L415.01-31.45Q414.21-31.45 414.21-32.25L414.21-32.25 414.21-36.15Q414.21-36.95 415.01-36.95L415.01-36.95 417.81-36.95Q418.21-36.95 418.38-36.73 418.56-36.5 418.56-36.15L418.56-36.15 418.56-32.25Q418.56-31.45 417.81-31.45L417.81-31.45ZM418.36 0L414.41 0 414.41-26.7 418.36-26.7 418.36 0ZM439.96 12.25L432.51 12.25Q429.91 12.25 427.93 11.53 425.96 10.8 424.83 9.33 423.71 7.85 423.71 5.65L423.71 5.65 423.71 4.45Q423.71 2.15 424.98 0.6 426.26-0.95 428.21-1.73 430.16-2.5 432.21-2.5L432.21-2.5 433.21-0.9Q431.71-0.9 430.41-0.43 429.11 0.05 428.28 1.1 427.46 2.15 427.46 3.8L427.46 3.8 427.46 4.9Q427.46 7.3 429.06 8.33 430.66 9.35 433.41 9.35L433.41 9.35 439.61 9.35Q442.61 9.35 444.33 8.2 446.06 7.05 446.06 4.6L446.06 4.6 446.06 3.6Q446.06 2.2 445.51 1.2 444.96 0.2 443.68-0.35 442.41-0.9 440.11-0.9L440.11-0.9 432.06-0.9Q428.96-0.9 427.23-2.23 425.51-3.55 425.51-5.65L425.51-5.65Q425.51-7.65 426.68-8.8 427.86-9.95 430.01-10.4L430.01-10.4Q428.16-11.15 427.11-12.43 426.06-13.7 425.66-15.18 425.26-16.65 425.26-18.15L425.26-18.15Q425.26-21.25 426.51-23.15 427.76-25.05 430.08-25.9 432.41-26.75 435.56-26.75L435.56-26.75 449.81-26.75 449.81-24.5 443.81-24Q444.46-23.55 445.26-22.83 446.06-22.1 446.63-20.78 447.21-19.45 447.21-17.15L447.21-17.15Q447.21-15.1 446.33-13.25 445.46-11.4 443.41-10.23 441.36-9.05 437.76-9.05L437.76-9.05 433.51-9.05Q431.41-9.05 430.18-8.43 428.96-7.8 428.96-6.2L428.96-6.2Q428.96-5 429.86-4.5 430.76-4 431.76-4L431.76-4 440.61-4Q443.71-4 445.73-3.2 447.76-2.4 448.78-0.78 449.81 0.85 449.81 3.35L449.81 3.35 449.81 4.45Q449.81 8.1 447.33 10.18 444.86 12.25 439.96 12.25L439.96 12.25ZM434.36-12.1L434.36-12.1 437.36-12.1Q439.91-12.1 441.23-12.88 442.56-13.65 443.06-14.9 443.56-16.15 443.56-17.6L443.56-17.6Q443.56-19.85 442.83-21.18 442.11-22.5 440.81-23.08 439.51-23.65 437.81-23.65L437.81-23.65 434.96-23.65Q432.11-23.65 430.48-22.38 428.86-21.1 428.86-17.95L428.86-17.95Q428.86-14.85 430.33-13.48 431.81-12.1 434.36-12.1ZM458.7 0L454.75 0 454.75-38.15 458.7-38.15 458.7-23.75Q460.55-25.1 463.13-26.13 465.7-27.15 468.5-27.15L468.5-27.15Q471.3-27.15 473.13-25.95 474.95-24.75 475.83-22.7 476.7-20.65 476.7-18.15L476.7-18.15 476.7 0 472.75 0 472.75-17.75Q472.75-19.45 472.08-20.75 471.4-22.05 470.15-22.8 468.9-23.55 467.15-23.55L467.15-23.55Q465.5-23.55 464.1-23.23 462.7-22.9 461.4-22.33 460.1-21.75 458.7-20.95L458.7-20.95 458.7 0ZM496.65 0L493 0Q490.4 0 488.7-0.85 487-1.7 486.2-3.6 485.4-5.5 485.45-8.65L485.45-8.65 485.6-23.45 481.35-23.45 481.35-26 485.65-26.7 486.3-34.15 489.35-34.15 489.35-26.7 497.05-26.7 497.05-23.45 489.35-23.45 489.35-8.65Q489.35-6.9 489.73-5.85 490.1-4.8 490.73-4.25 491.35-3.7 492.05-3.48 492.75-3.25 493.4-3.2L493.4-3.2 496.65-2.9 496.65 0ZM503.2 3.9L503.2 3.9Q502.7 3.9 502.32 3.83 501.95 3.75 501.95 3.75L501.95 3.75 501.95 2.5Q502.5 2.5 502.75 2.33 503 2.15 503 1.65L503 1.65 503-0.25 502.6-0.25Q502.3-0.25 502.05-0.45 501.8-0.65 501.8-1.05L501.8-1.05 501.8-4.65Q501.8-5.55 502.6-5.55L502.6-5.55 504.75-5.55Q505.25-5.55 505.4-5.3 505.55-5.05 505.55-4.65L505.55-4.65 505.55 1.45Q505.55 2.45 505.17 3 504.8 3.55 504.27 3.73 503.75 3.9 503.2 3.9ZM531.19 0.3L531.19 0.3Q528.24 0.3 526.34-1.45 524.44-3.2 524.44-6.4L524.44-6.4 524.44-8.3Q524.44-11.45 526.52-13.4 528.59-15.35 532.79-15.35L532.79-15.35 541.84-15.35 541.84-18.65Q541.84-20.3 541.27-21.48 540.69-22.65 539.22-23.3 537.74-23.95 534.94-23.95L534.94-23.95 526.64-23.95 526.64-26.3Q528.39-26.6 530.72-26.85 533.04-27.1 536.19-27.1L536.19-27.1Q539.44-27.15 541.59-26.3 543.74-25.45 544.77-23.63 545.79-21.8 545.79-18.85L545.79-18.85 545.79 0 542.74 0 541.99-3.05Q541.79-2.85 540.77-2.35 539.74-1.85 538.17-1.23 536.59-0.6 534.77-0.15 532.94 0.3 531.19 0.3ZM532.84-2.65L532.84-2.65Q533.74-2.6 534.89-2.85 536.04-3.1 537.24-3.43 538.44-3.75 539.47-4.1 540.49-4.45 541.14-4.7 541.79-4.95 541.84-4.95L541.84-4.95 541.84-13.35 533.69-13Q530.84-12.9 529.62-11.6 528.39-10.3 528.39-8.25L528.39-8.25 528.39-7.05Q528.39-5.45 529.07-4.48 529.74-3.5 530.77-3.1 531.79-2.7 532.84-2.65ZM557.19 0L553.24 0 553.24-26.7 556.34-26.7 557.19-23.75Q559.09-25.1 561.64-26.13 564.19-27.15 566.94-27.15L566.94-27.15Q569.89-27.15 571.69-25.9 573.49-24.65 574.34-22.6 575.19-20.55 575.19-18.15L575.19-18.15 575.19 0 571.24 0 571.24-17.7Q571.24-19.4 570.57-20.73 569.89-22.05 568.67-22.8 567.44-23.55 565.64-23.55L565.64-23.55Q563.99-23.55 562.57-23.23 561.14-22.9 559.87-22.33 558.59-21.75 557.19-20.95L557.19-20.95 557.19 0ZM591.29 0.3L591.29 0.3Q587.99 0.3 585.86-1.13 583.74-2.55 582.71-5.53 581.69-8.5 581.69-13.15L581.69-13.15Q581.69-18.1 582.69-21.18 583.69-24.25 585.89-25.65 588.09-27.05 591.79-27.05L591.79-27.05Q594.04-27.05 596.19-26.55 598.34-26.05 599.99-25.45L599.99-25.45 599.99-38.15 603.94-38.15 603.94 0 600.74 0 599.99-2.7Q599.24-2.05 597.76-1.35 596.29-0.65 594.56-0.18 592.84 0.3 591.29 0.3ZM592.44-2.95L592.44-2.95Q594.74-2.95 596.61-3.68 598.49-4.4 599.99-5.2L599.99-5.2 599.99-22.65Q598.19-23.2 596.54-23.58 594.89-23.95 592.84-23.95L592.84-23.95Q590.29-23.95 588.69-23 587.09-22.05 586.36-19.73 585.64-17.4 585.64-13.3L585.64-13.3Q585.64-9.6 586.31-7.3 586.99-5 588.49-3.98 589.99-2.95 592.44-2.95ZM636.98 0.3L636.98 0.3Q633.68 0.3 631.23-0.45 628.78-1.2 627.18-3.18 625.58-5.15 624.81-8.85 624.03-12.55 624.03-18.5L624.03-18.5Q624.03-24.1 624.83-27.73 625.63-31.35 627.26-33.4 628.88-35.45 631.38-36.27 633.88-37.1 637.28-37.1L637.28-37.1Q638.83-37.1 640.73-36.9 642.63-36.7 644.48-36.43 646.33-36.15 647.83-35.75L647.83-35.75 647.83-32.8Q646.98-32.95 645.43-33.1 643.88-33.25 641.91-33.38 639.93-33.5 637.88-33.5L637.88-33.5Q635.23-33.5 633.33-32.9 631.43-32.3 630.26-30.68 629.08-29.05 628.53-26.1 627.98-23.15 627.98-18.45L627.98-18.45Q627.98-13.7 628.51-10.68 629.03-7.65 630.18-6.05 631.33-4.45 633.18-3.85 635.03-3.25 637.78-3.25L637.78-3.25Q641.53-3.25 643.93-3.45 646.33-3.65 647.83-3.9L647.83-3.9 647.83-0.9Q646.33-0.55 644.51-0.28 642.68 0 640.76 0.15 638.83 0.3 636.98 0.3ZM661.88 0.3L661.88 0.3Q658.03 0.3 655.95-1.7 653.88-3.7 653.88-7.9L653.88-7.9 653.88-26.7 657.83-26.7 657.83-8.9Q657.83-5.55 659.35-4.38 660.88-3.2 663.63-3.2L663.63-3.2Q665.98-3.2 667.93-3.88 669.88-4.55 671.93-5.75L671.93-5.75 671.93-26.7 675.88-26.7 675.88 0 672.78 0 671.93-2.95Q669.88-1.65 667.3-0.68 664.73 0.3 661.88 0.3ZM692.53 0.3L692.53 0.3Q691.53 0.3 690.08 0.25 688.63 0.2 687.05 0.1 685.48 0 684.2-0.13 682.93-0.25 682.23-0.4L682.23-0.4 682.23-2.8 693.18-2.8Q694.83-2.8 696.03-3.05 697.23-3.3 697.9-4.15 698.58-5 698.58-6.7L698.58-6.7 698.58-7.9Q698.58-9.65 697.43-10.63 696.28-11.6 693.73-11.6L693.73-11.6 689.98-11.6Q687.63-11.6 685.8-12.2 683.98-12.8 682.98-14.25 681.98-15.7 681.98-18.25L681.98-18.25 681.98-19.65Q681.98-22.15 682.95-23.75 683.93-25.35 686-26.15 688.08-26.95 691.38-26.95L691.38-26.95Q692.78-26.95 694.6-26.85 696.43-26.75 698.18-26.58 699.93-26.4 701.03-26.2L701.03-26.2 701.03-23.8 690.73-23.8Q688.18-23.8 686.8-22.95 685.43-22.1 685.43-19.65L685.43-19.65 685.43-18.55Q685.43-17 686.08-16.23 686.73-15.45 687.9-15.2 689.08-14.95 690.63-14.95L690.63-14.95 694.43-14.95Q698.08-14.95 700.08-13.25 702.08-11.55 702.08-8.35L702.08-8.35 702.08-6.5Q702.08-3.8 700.85-2.33 699.63-0.85 697.5-0.28 695.38 0.3 692.53 0.3ZM720.82 0L717.17 0Q714.57 0 712.87-0.85 711.17-1.7 710.37-3.6 709.57-5.5 709.62-8.65L709.62-8.65 709.77-23.45 705.52-23.45 705.52-26 709.82-26.7 710.47-34.15 713.52-34.15 713.52-26.7 721.22-26.7 721.22-23.45 713.52-23.45 713.52-8.65Q713.52-6.9 713.9-5.85 714.27-4.8 714.9-4.25 715.52-3.7 716.22-3.48 716.92-3.25 717.57-3.2L717.57-3.2 720.82-2.9 720.82 0ZM737.27 0.3L737.27 0.3Q734.37 0.3 732.2-0.3 730.02-0.9 728.57-2.4 727.12-3.9 726.42-6.58 725.72-9.25 725.72-13.4L725.72-13.4Q725.72-17.6 726.42-20.28 727.12-22.95 728.57-24.43 730.02-25.9 732.2-26.48 734.37-27.05 737.27-27.05L737.27-27.05Q740.17-27.05 742.35-26.45 744.52-25.85 745.97-24.38 747.42-22.9 748.15-20.23 748.87-17.55 748.87-13.4L748.87-13.4Q748.87-9.2 748.15-6.53 747.42-3.85 746-2.38 744.57-0.9 742.37-0.3 740.17 0.3 737.27 0.3ZM737.27-2.95L737.27-2.95Q739.12-2.95 740.55-3.3 741.97-3.65 742.92-4.7 743.87-5.75 744.37-7.85 744.87-9.95 744.87-13.4L744.87-13.4Q744.87-16.9 744.37-18.95 743.87-21 742.92-22.05 741.97-23.1 740.55-23.45 739.12-23.8 737.27-23.8L737.27-23.8Q735.37-23.8 733.97-23.45 732.57-23.1 731.62-22.05 730.67-21 730.17-18.95 729.67-16.9 729.67-13.4L729.67-13.4Q729.67-9.95 730.17-7.85 730.67-5.75 731.62-4.7 732.57-3.65 733.97-3.3 735.37-2.95 737.27-2.95ZM759.47 0L755.52 0 755.52-26.7 758.62-26.7 759.47-23.75Q761.47-25.15 763.94-26.15 766.42-27.15 769.47-27.15L769.47-27.15Q771.97-27.15 773.74-26.03 775.52-24.9 776.42-23.2L776.42-23.2Q777.67-24.1 779.44-25 781.22-25.9 783.24-26.53 785.27-27.15 787.17-27.15L787.17-27.15Q790.07-27.15 791.92-25.93 793.77-24.7 794.64-22.63 795.52-20.55 795.52-18L795.52-18 795.52 0 791.57 0 791.57-17.7Q791.57-19.4 790.89-20.73 790.22-22.05 788.97-22.8 787.72-23.55 785.92-23.55L785.92-23.55Q783.67-23.55 781.32-22.7 778.97-21.85 776.97-20.65L776.97-20.65Q777.22-19.9 777.34-19.18 777.47-18.45 777.47-17.65L777.47-17.65 777.47 0 773.52 0 773.52-17.7Q773.52-19.4 772.84-20.73 772.17-22.05 770.94-22.8 769.72-23.55 767.92-23.55L767.92-23.55Q766.27-23.55 764.84-23.23 763.42-22.9 762.14-22.33 760.87-21.75 759.47-20.95L759.47-20.95 759.47 0ZM806.32-31.45L803.52-31.45Q802.72-31.45 802.72-32.25L802.72-32.25 802.72-36.15Q802.72-36.95 803.52-36.95L803.52-36.95 806.32-36.95Q806.72-36.95 806.89-36.73 807.07-36.5 807.07-36.15L807.07-36.15 807.07-32.25Q807.07-31.45 806.32-31.45L806.32-31.45ZM806.87 0L802.92 0 802.92-26.7 806.87-26.7 806.87 0ZM833.21 0L813.21 0 813.21-3 828.61-23.45 812.81-23.45 812.81-26.7 833.21-26.7 833.21-23.7 817.76-3.25 833.21-3.25 833.21 0ZM844.36 0.3L844.36 0.3Q841.41 0.3 839.51-1.45 837.61-3.2 837.61-6.4L837.61-6.4 837.61-8.3Q837.61-11.45 839.69-13.4 841.76-15.35 845.96-15.35L845.96-15.35 855.01-15.35 855.01-18.65Q855.01-20.3 854.44-21.48 853.86-22.65 852.39-23.3 850.91-23.95 848.11-23.95L848.11-23.95 839.81-23.95 839.81-26.3Q841.56-26.6 843.89-26.85 846.21-27.1 849.36-27.1L849.36-27.1Q852.61-27.15 854.76-26.3 856.91-25.45 857.94-23.63 858.96-21.8 858.96-18.85L858.96-18.85 858.96 0 855.91 0 855.16-3.05Q854.96-2.85 853.94-2.35 852.91-1.85 851.34-1.23 849.76-0.6 847.94-0.15 846.11 0.3 844.36 0.3ZM846.01-2.65L846.01-2.65Q846.91-2.6 848.06-2.85 849.21-3.1 850.41-3.43 851.61-3.75 852.64-4.1 853.66-4.45 854.31-4.7 854.96-4.95 855.01-4.95L855.01-4.95 855.01-13.35 846.86-13Q844.01-12.9 842.79-11.6 841.56-10.3 841.56-8.25L841.56-8.25 841.56-7.05Q841.56-5.45 842.24-4.48 842.91-3.5 843.94-3.1 844.96-2.7 846.01-2.65ZM879.26 0.3L879.26 0.3Q877.36 0.3 875.73-0.18 874.11-0.65 872.76-1.33 871.41-2 870.36-2.7L870.36-2.7 869.61 0 866.41 0 866.41-38.15 870.36-38.15 870.36-24.25Q872.26-25.35 874.66-26.2 877.06-27.05 879.11-27.05L879.11-27.05Q882.31-27.05 884.41-25.7 886.51-24.35 887.58-21.3 888.66-18.25 888.66-13.15L888.66-13.15Q888.66-9 887.71-5.98 886.76-2.95 884.68-1.33 882.61 0.3 879.26 0.3ZM878.01-3L878.01-3Q880.21-3 881.68-4.13 883.16-5.25 883.93-7.55 884.71-9.85 884.71-13.3L884.71-13.3Q884.71-17.7 883.83-19.93 882.96-22.15 881.46-22.95 879.96-23.75 878.01-23.75L878.01-23.75Q875.76-23.75 873.98-23.13 872.21-22.5 870.36-21.5L870.36-21.5 870.36-5.15Q871.91-4.4 873.78-3.7 875.66-3 878.01-3ZM905.71 0.05L902.31 0.05Q900.01 0.05 898.46-0.78 896.91-1.6 896.11-3.48 895.31-5.35 895.31-8.55L895.31-8.55 895.31-38.15 899.26-38.15 899.26-9.05Q899.26-6.65 899.71-5.43 900.16-4.2 901.01-3.73 901.86-3.25 903.01-3.1L903.01-3.1 905.71-2.8 905.71 0.05ZM920.2 0.3L920.2 0.3Q916 0.3 913.58-0.95 911.15-2.2 910.1-5.2 909.05-8.2 909.05-13.4L909.05-13.4Q909.05-18.7 910.13-21.68 911.2-24.65 913.65-25.85 916.1-27.05 920.25-27.05L920.25-27.05Q923.8-27.05 926.03-26.25 928.25-25.45 929.33-23.53 930.4-21.6 930.4-18.2L930.4-18.2Q930.4-15.85 929.48-14.43 928.55-13 926.83-12.38 925.1-11.75 922.75-11.75L922.75-11.75 913-11.75Q913.05-8.5 913.7-6.53 914.35-4.55 916.08-3.68 917.8-2.8 921.15-2.8L921.15-2.8 929.75-2.8 929.75-0.4Q927.45-0.1 925.25 0.1 923.05 0.3 920.2 0.3ZM912.95-14.35L912.95-14.35 922.45-14.35Q924.7-14.35 925.78-15.18 926.85-16 926.85-18.15L926.85-18.15Q926.85-20.45 926.18-21.73 925.5-23 924.08-23.53 922.65-24.05 920.25-24.05L920.25-24.05Q917.45-24.05 915.85-23.23 914.25-22.4 913.6-20.3 912.95-18.2 912.95-14.35Z" opacity="1" transform="matrix(1,0,0,1,0,0)" fill="white" class="slogan-text-1" id="SvgjsPath1740"></path></svg></g></svg></g></svg></g></svg></g></svg></g><defs></defs><mask><g id="SvgjsG1739"><svg viewBox="0 0 395.52 93.13604248359073" height="93.13604248359073" width="395.52"><g><svg viewBox="0 0 494.5665814529556 116.45927928086243" height="93.13604248359073" width="395.52"><g><svg viewBox="0 0 494.5665814529556 116.45927928086243" height="116.45927928086243" width="494.5665814529556"><g id="SvgjsG1738"><svg viewBox="0 0 494.5665814529556 116.45927928086243" height="116.45927928086243" width="494.5665814529556" id="SvgjsSvg1737"><g><svg viewBox="0 0 494.5665814529556 82.3562" height="82.3562" width="494.5665814529556"><g><svg><g></g><g></g></svg></g><g><svg><g></g><g><svg></svg></g></svg></g><g id="SvgjsG1736"><svg viewBox="0 0 494.5665814529556 82.3562" height="82.3562" width="494.5665814529556"><g><svg xmlns="http://www.w3.org/2000/svg" xmlns:xlink="http://www.w3.org/1999/xlink" version="1.1" x="0" y="0" viewBox="7.797000408172607 4.980999946594238 87.16500091552734 90.17999267578125" enable-background="new 0 0 100 100" xml:space="preserve" height="82.3562" width="79.60278145295563" class="icon-s-0" data-fill-palette-color="accent" id="SvgjsSvg1735"></svg></g><g transform="matrix(1,0,0,1,99.04658145295562,4.367041305540326)"><svg width="395.52" viewBox="2.5 -38.45000076293945 273.5199890136719 50.900001525878906" height="73.62211738891935" data-palette-color="url(#fc4da0e9-75ca-483f-babc-0db56d0a55ba)"></svg></g></svg></g></svg></g><g transform="matrix(1,0,0,1,94.46221705751452,99.73661498470653)"><svg viewBox="0 0 305.64214733792653 16.722664296155912" height="16.722664296155912" width="305.64214733792653"><g transform="matrix(1,0,0,1,0,0)"><svg width="305.64214733792653" viewBox="3.8499999046325684 -38.45000076293945 926.550048828125 50.70000076293945" height="16.722664296155912" data-palette-color="url(#2a24f3f8-4315-49eb-8cf9-8c6bf76dd4b5)"></svg></g></svg></g></svg></g></svg></g></svg></g><defs></defs></svg></g></mask></svg></g></mask><linearGradient x1="0" x2="1" y1="0.578" y2="0.595" id="2a24f3f8-4315-49eb-8cf9-8c6bf76dd4b5"><stop stop-color="#6ee2f5" offset="0"></stop><stop stop-color="#6454f0" offset="1"></stop></linearGradient><rect width="395.52001953125" height="93.13604736328125" fill="#000000" mask="url(#8b61e1cf-d9c2-4b87-8de0-f97a64a49f91)" data-fill-palette-color="secondary"></rect></svg><rect width="395.52" height="93.13604248359073" fill="none" stroke="none" visibility="hidden"></rect></g></svg></g></svg>